<svg data-v-423bf9ae="" xmlns="http://www.w3.org/2000/svg" viewBox="0 0 437.04057174938924 60" class="font"><!----><!----><defs data-v-423bf9ae=""><linearGradient data-v-423bf9ae="" gradientTransform="rotate(25)" id="06246fdc-7f0b-48c7-a8b0-bbc80338ea52" x1="0%" y1="0%" x2="100%" y2="0%"><stop data-v-423bf9ae="" offset="0%" style="stop-color: rgb(75, 57, 41); stop-opacity: 1;"></stop><stop data-v-423bf9ae="" offset="100%" style="stop-color: rgb(138, 3, 3); stop-opacity: 1;"></stop></linearGradient></defs><g data-v-423bf9ae="" id="fb7b5c74-2ab0-4518-8787-8bdb6d9aa4c6" fill="url(#06246fdc-7f0b-48c7-a8b0-bbc80338ea52)" transform="matrix(4.773269805623416,0,0,4.773269805623416,-7.207638821373138,-21.86157534558366)"><path d="M9.34 14.35L9.63 14.35L9.63 4.58L9.17 4.58L5.60 10.46L5.56 10.46L1.97 4.58L1.51 4.58L1.51 14.35L1.81 14.35L1.81 4.93L1.85 4.93L5.57 11.05L9.30 4.93L9.34 4.93ZM18.13 14.35L18.13 14.08L16.94 14.08L16.94 9.42C16.94 7.92 16.17 7.10 14.63 7.10C13.31 7.10 12.63 7.67 12.24 8.58L12.49 8.69C12.88 7.77 13.57 7.36 14.63 7.36C15.95 7.36 16.65 8.01 16.65 9.46L16.65 10.50L14.66 10.50C12.63 10.50 12.00 11.35 12.00 12.53C12.00 13.80 12.82 14.52 14.28 14.52C15.58 14.52 16.25 13.94 16.60 13.27L16.65 13.27L16.65 13.94C16.65 14.22 16.77 14.35 17.05 14.35ZM14.28 14.25C13.13 14.25 12.32 13.72 12.32 12.74L12.32 12.32C12.32 11.38 13.01 10.75 14.67 10.75L16.65 10.75L16.65 12.28C16.65 13.59 15.54 14.25 14.28 14.25ZM20.17 14.35L20.17 9.46C20.17 8.16 21.24 7.53 22.39 7.53L23.00 7.53L23.00 7.27L22.43 7.27C21.13 7.27 20.54 7.83 20.22 8.48L20.17 8.48L20.17 7.27L19.88 7.27L19.88 14.35ZM29.33 17.15L29.62 17.15L29.62 7.27L29.33 7.27L29.33 8.36L29.29 8.36C28.99 7.74 28.24 7.10 26.99 7.10C25.13 7.10 24.02 8.34 24.02 10.81C24.02 13.27 25.13 14.52 26.99 14.52C28.24 14.52 28.99 13.87 29.29 13.26L29.33 13.26ZM26.99 14.25C25.30 14.25 24.35 13.06 24.35 11.14L24.35 10.47C24.35 8.55 25.30 7.36 26.99 7.36C28.22 7.36 29.33 8.13 29.33 9.27L29.33 12.35C29.33 13.48 28.22 14.25 26.99 14.25ZM37.11 14.35L37.41 14.35L37.41 7.27L37.11 7.27L37.11 12.33C37.11 13.62 36.05 14.25 34.89 14.25C33.50 14.25 32.72 13.48 32.72 11.76L32.72 7.27L32.42 7.27L32.42 11.82C32.42 13.58 33.28 14.52 34.86 14.52C36.13 14.52 36.82 13.92 37.07 13.29L37.11 13.29ZM42.69 14.52C44.04 14.52 44.97 13.78 45.39 12.61L45.14 12.52C44.70 13.66 43.88 14.25 42.69 14.25C41.01 14.25 40.04 13.05 40.04 11.14L40.04 10.77L45.50 10.77L45.50 10.63C45.50 8.46 44.34 7.10 42.63 7.10C40.81 7.10 39.72 8.39 39.72 10.81C39.72 13.26 40.84 14.52 42.69 14.52ZM42.63 7.36C44.16 7.36 45.18 8.58 45.18 10.44L45.18 10.50L40.04 10.50L40.04 10.47C40.04 8.57 40.98 7.36 42.63 7.36ZM51.81 14.35L51.81 14.08L46.96 14.08L51.67 7.56L51.67 7.27L46.79 7.27L46.79 7.53L51.37 7.53L46.65 14.06L46.65 14.35ZM64.75 14.35L65.04 14.35L65.04 4.58L64.58 4.58L61.01 10.46L60.97 10.46L57.39 4.58L56.92 4.58L56.92 14.35L57.22 14.35L57.22 4.93L57.26 4.93L60.98 11.05L64.71 4.93L64.75 4.93ZM70.34 14.52C72.18 14.52 73.28 13.26 73.28 10.81C73.28 8.36 72.18 7.10 70.34 7.10C68.49 7.10 67.40 8.36 67.40 10.81C67.40 13.26 68.49 14.52 70.34 14.52ZM70.34 14.25C68.66 14.25 67.72 13.05 67.72 11.14L67.72 10.47C67.72 8.57 68.66 7.36 70.34 7.36C72.02 7.36 72.95 8.57 72.95 10.47L72.95 11.14C72.95 13.05 72.02 14.25 70.34 14.25ZM77.90 14.52C79.74 14.52 80.84 13.26 80.84 10.81C80.84 8.36 79.74 7.10 77.90 7.10C76.05 7.10 74.96 8.36 74.96 10.81C74.96 13.26 76.05 14.52 77.90 14.52ZM77.90 14.25C76.22 14.25 75.28 13.05 75.28 11.14L75.28 10.47C75.28 8.57 76.22 7.36 77.90 7.36C79.58 7.36 80.51 8.57 80.51 10.47L80.51 11.14C80.51 13.05 79.58 14.25 77.90 14.25ZM83.44 14.35L83.44 9.46C83.44 8.16 84.50 7.53 85.65 7.53L86.27 7.53L86.27 7.27L85.69 7.27C84.39 7.27 83.80 7.83 83.48 8.48L83.44 8.48L83.44 7.27L83.15 7.27L83.15 14.35ZM90.26 14.52C91.62 14.52 92.54 13.78 92.96 12.61L92.71 12.52C92.27 13.66 91.45 14.25 90.26 14.25C88.58 14.25 87.61 13.05 87.61 11.14L87.61 10.77L93.07 10.77L93.07 10.63C93.07 8.46 91.91 7.10 90.20 7.10C88.38 7.10 87.29 8.39 87.29 10.81C87.29 13.26 88.41 14.52 90.26 14.52ZM90.20 7.36C91.73 7.36 92.75 8.58 92.75 10.44L92.75 10.50L87.61 10.50L87.61 10.47C87.61 8.57 88.55 7.36 90.20 7.36Z"></path></g><!----><!----></svg>