<?xml version="1.0" encoding="utf-8"?>
<!-- Generator: Adobe Illustrator 23.1.0, SVG Export Plug-In . SVG Version: 6.00 Build 0)  -->
<svg version="1.1" id="Layer_1" xmlns="http://www.w3.org/2000/svg" xmlns:xlink="http://www.w3.org/1999/xlink" x="0px" y="0px"
	 viewBox="0 0 235.9 74.32" style="enable-background:new 0 0 235.9 74.32;" xml:space="preserve">
<style type="text/css">
	.st0{fill:none;stroke:#000000;stroke-miterlimit:10;}
	.st1{fill:none;stroke:#000000;stroke-width:0.25;stroke-miterlimit:10;}
	.st2{fill:none;stroke:#000000;stroke-width:3;stroke-linecap:round;stroke-miterlimit:10;}
	.st3{fill:none;stroke:#000000;stroke-width:3;stroke-linecap:round;stroke-linejoin:bevel;stroke-miterlimit:10;}
	.st4{fill:none;stroke:#000000;stroke-width:10;stroke-miterlimit:10;}
	.st5{fill:none;stroke:#000000;stroke-width:5;stroke-miterlimit:10;}
	.st6{fill:none;stroke:#FCFCFC;stroke-width:3;stroke-linecap:round;stroke-miterlimit:10;}
	.st7{fill:none;stroke:#FCFCFC;stroke-width:3;stroke-linecap:round;stroke-linejoin:bevel;stroke-miterlimit:10;}
	.st8{fill:none;stroke:#000000;stroke-width:6;stroke-linecap:round;stroke-miterlimit:10;}
	.st9{fill:none;stroke:#000000;stroke-width:6;stroke-linecap:round;stroke-linejoin:bevel;stroke-miterlimit:10;}
	.st10{fill:none;stroke:#FCFCFC;stroke-width:6;stroke-linecap:round;stroke-miterlimit:10;}
	.st11{fill:none;stroke:#FCFCFC;stroke-width:6;stroke-linecap:round;stroke-linejoin:bevel;stroke-miterlimit:10;}
</style>
<polyline class="st10" points="2.55,71.78 2.55,7.94 34,39.86 65.45,7.94 65.45,71.78 "/>
<polyline class="st10" points="85.45,71.78 102.98,32.17 120.75,71.78 "/>
<line class="st10" x1="232.01" y1="72.28" x2="222.81" y2="62.36"/>
<path class="st11" d="M220.25,70.43c-1.93,1.03-3.94,1.85-6.24,1.85c-9.87,0-18.18-9.41-18.18-20.34s8-19.78,17.86-19.78
	s17.86,8.85,17.86,19.78c0,2.5-0.42,4.9-1.19,7.11"/>
<path class="st10" d="M141.01,72.28l-0.25-39.93l10.84,0.05c0,0,12.33-1.9,14.22,7.58c1.51,7.57-7.58,12.33-7.58,12.33l17.77,19.96"
	/>
</svg>
