<?xml version="1.0" encoding="utf-8"?>
<!-- Generator: Adobe Illustrator 23.1.0, SVG Export Plug-In . SVG Version: 6.00 Build 0)  -->
<svg version="1.1" id="Layer_1" xmlns="http://www.w3.org/2000/svg" xmlns:xlink="http://www.w3.org/1999/xlink" x="0px" y="0px"
	 viewBox="0 0 235 70" style="enable-background:new 0 0 235 70;" xml:space="preserve">
<style type="text/css">
	.st0{fill:none;stroke:#000000;stroke-miterlimit:10;}
	.st1{fill:none;stroke:#000000;stroke-width:0.25;stroke-miterlimit:10;}
	.st2{fill:none;stroke:#000000;stroke-width:3;stroke-linecap:round;stroke-miterlimit:10;}
	.st3{fill:none;stroke:#000000;stroke-width:3;stroke-linecap:round;stroke-linejoin:bevel;stroke-miterlimit:10;}
	.st4{fill:none;stroke:#000000;stroke-width:10;stroke-miterlimit:10;}
	.st5{fill:none;stroke:#000000;stroke-width:5;stroke-miterlimit:10;}
	.st6{fill:none;stroke:#FCFCFC;stroke-width:3;stroke-miterlimit:10;}
	.st7{fill:none;stroke:#F9F9F9;stroke-width:5;stroke-miterlimit:10;}
	.st8{fill:none;stroke:#F9F9F9;stroke-width:10;stroke-miterlimit:10;}
</style>
<polyline class="st2" points="1.54,68 1.54,4.16 32.99,36.08 64.44,4.16 64.44,68 "/>
<polyline class="st2" points="84.44,68 101.97,28.39 119.75,68 "/>
<line class="st2" x1="231" y1="68.5" x2="221.8" y2="58.58"/>
<path class="st3" d="M220.9,65.73c-2.46,1.41-4.94,2.77-7.9,2.77c-9.87,0-18.18-9.41-18.18-20.34s8-19.78,17.86-19.78
	s17.86,8.85,17.86,19.78c0,3.34-0.75,6.49-2.07,9.24"/>
<path class="st2" d="M140,68.5l-0.25-39.93l10.84,0.05c0,0,12.33-1.9,14.22,7.58c1.51,7.57-7.58,12.33-7.58,12.33L175,68.5"/>
</svg>
